#tb 0: 1/15
0,          0,          0,        1,  4617600, 0x4ba6df50
0,          1,          1,        1,  4617600, 0x419fdeaf
0,          2,          2,        1,  4617600, 0xeb2edced
0,          3,          3,        1,  4617600, 0xa2bb3a1a
0,          4,          4,        1,  4617600, 0x411cfb36
0,          5,          5,        1,  4617600, 0xb2dc22ed
0,          6,          6,        1,  4617600, 0x236d23b5
0,          7,          7,        1,  4617600, 0x7fef275e
